<svg xmlns="http://www.w3.org/2000/svg" viewBox="0 0 199.06 372.6"><g id="Layer_2" data-name="Layer 2"><g id="Layer_1-2" data-name="Layer 1"><path d="M155.33,132.43c11.22,11,34.33,28,42,56.58S185.42,258.9,177,265.62c7.11-20,17.58-34.45,10.85-65s-75.43-73.22-75.43-73.22c0,86.31,0,185-.1,186.66-.68,17.45-14.65,37-36.84,48.83-29.12,15.55-61.36,12-72-8s4.3-48.74,33.42-64.29c23.48-12.54,49-12.65,63.58-1.77V0c5.31,6,7.41,21.43,12.44,31,6.32,11.92,16.18,18.62,30.45,32.33C169,88,184,102.16,193.32,126.18s4.23,39.69-2.34,57.62c3.18-31.35,3-38.15-15.21-65.93s-36.66-39.11-63.36-56.16c0,10.58,0,32.32,0,34.16C123.12,111.49,144.11,121.43,155.33,132.43Z" style="fill:#010101"/><polygon points="17.53 277.1 13.09 278.43 13.09 185.1 17.53 183.76 17.53 277.1" style="fill:#231f20"/><polygon points="40.2 270.43 35.75 271.76 35.75 178.43 40.2 177.1 40.2 270.43" style="fill:#231f20"/><path d="M3.75,218V205.54l45.78-13.33v12.44Zm45.78,26.66V232.21L3.75,245.54V258Z" style="fill:#231f20"/></g></g></svg>