<svg xmlns="http://www.w3.org/2000/svg" viewBox="0 0 182.77 175.86"><g id="Layer_2" data-name="Layer 2"><g id="Layer_1-2" data-name="Layer 1"><path d="M182.77,120.53c0,30.56-31.05,55.33-69.36,55.33s-69.35-24.77-69.35-55.33S75.11,65.2,113.41,65.2,182.77,90,182.77,120.53ZM136.84,89c-23.75-18.11-53.49-19-66.43-2.07S66.23,132.31,90,150.42s53.5,19,66.44,2.07S160.59,107.08,136.84,89Z" style="fill:#010101"/><polygon points="13.78 100 9.33 101.33 9.33 8 13.78 6.67 13.78 100" style="fill:#231f20"/><polygon points="36.45 93.33 32 94.67 32 1.33 36.45 0 36.45 93.33" style="fill:#231f20"/><path d="M0,40.89V28.44L45.78,15.11V27.56ZM45.78,67.56V55.11L0,68.44V80.89Z" style="fill:#231f20"/></g></g></svg>