<svg xmlns="http://www.w3.org/2000/svg" viewBox="0 0 112.41 372.52"><g id="Layer_2" data-name="Layer 2"><g id="Layer_1-2" data-name="Layer 1"><path d="M106.57,0c6,0,5.84,7,5.84,7s0,304.88-.11,307c-.68,17.45-14.65,37-36.84,48.83-29.12,15.55-61.36,12-72-8s4.3-48.75,33.42-64.3c23.48-12.54,49-12.65,63.58-1.76V7S100.57,0,106.57,0Zm-22,290c-13.22-12.09-37.36,2.31-50.16,18.9-15.88,20.58-19,44.76-7,54s34.56.06,50.44-20.52C89.89,326.68,97.78,302.07,84.56,290Z" style="fill:#010101"/><polygon points="19.98 271.24 15.54 272.58 15.54 179.24 19.98 177.91 19.98 271.24" style="fill:#231f20"/><polygon points="42.65 264.58 38.2 265.91 38.2 172.58 42.65 171.24 42.65 264.58" style="fill:#231f20"/><path d="M6.2,212.13V199.69L52,186.35V198.8ZM52,238.8V226.35L6.2,239.69v12.44Z" style="fill:#231f20"/></g></g></svg>