<svg xmlns="http://www.w3.org/2000/svg" viewBox="0 0 112.41 372.52"><g id="Layer_2" data-name="Layer 2"><g id="Layer_1-2" data-name="Layer 1"><path d="M100.44,7V288.81c-14.59-10.89-40.1-10.78-63.58,1.76C7.74,306.12-7.22,334.91,3.44,354.87s42.9,23.52,72,8C97.65,351,111.62,331.46,112.3,314c.09-2.16.11-307,.11-307s.16-7-5.84-7S100.44,7,100.44,7Z" style="fill:#010101"/><polygon points="17.53 274.15 13.09 275.48 13.09 182.15 17.53 180.82 17.53 274.15" style="fill:#231f20"/><polygon points="40.2 267.48 35.75 268.82 35.75 175.48 40.2 174.15 40.2 267.48" style="fill:#231f20"/><path d="M3.75,215V202.59l45.78-13.33v12.45Zm45.78,26.67V229.26L3.75,242.59V255Z" style="fill:#231f20"/></g></g></svg>