<svg xmlns="http://www.w3.org/2000/svg" viewBox="0 0 199.39 372.6"><g id="Layer_2" data-name="Layer 2"><g id="Layer_1-2" data-name="Layer 1"><path d="M100.44,0V288.88c-14.59-10.88-40.1-10.77-63.58,1.77C7.74,306.2-7.22,335,3.44,354.94s42.9,23.53,72,8c22.19-11.85,36.16-31.38,36.84-48.83.09-2.17.1-121.47.11-212.38,9.57-2.75,66,18.7,73.8,71.14S176,250.3,167,279.8c8.44-6.73,33.89-56.06,32.34-103.62s-33.46-74-63.67-105.55S112.4,13.52,100.44,0Z" style="fill:#010101"/><polygon points="19.98 278.32 15.54 279.65 15.54 186.32 19.98 184.99 19.98 278.32" style="fill:#231f20"/><polygon points="42.65 271.65 38.2 272.99 38.2 179.65 42.65 178.32 42.65 271.65" style="fill:#231f20"/><path d="M6.2,219.21V206.76L52,193.43v12.44ZM52,245.87V233.43L6.2,246.76v12.45Z" style="fill:#231f20"/></g></g></svg>